<svg width="1000" height="1000" viewBox="0 0 1000 1000" fill="none" xmlns="http://www.w3.org/2000/svg"><path fill="#855DCD" style="fill:#f5841f;fill-opacity:1" d="M0 0h1000v1000H0z"/><path d="M257.778 155.556h484.444v688.888h-71.111V528.889h-.697c-7.86-87.212-81.156-155.556-170.414-155.556s-162.554 68.344-170.414 155.556h-.697v315.555h-71.111z" fill="#fff"/><path d="m128.889 253.333 28.889 97.778h24.444v395.556c-12.273 0-22.222 9.949-22.222 22.222v26.667h-4.444c-12.273 0-22.223 9.949-22.223 22.222v26.666h248.889v-26.666c0-12.273-9.949-22.222-22.222-22.222h-4.444v-26.667c0-12.273-9.95-22.222-22.223-22.222h-26.666V253.333zm546.666 493.334c-12.273 0-22.222 9.949-22.222 22.222v26.667h-4.444c-12.273 0-22.222 9.949-22.222 22.222v26.666h248.888v-26.666c0-12.273-9.949-22.222-22.222-22.222h-4.444v-26.667c0-12.273-9.949-22.222-22.222-22.222V351.111h24.444L880 253.333H702.222v493.334z" fill="#fff"/><path d="M459.219 483.6h81.562v62.625l-15.75 125.812h-50.437l-15.375-125.812zm2.812 207.562h76.125v67.313h-76.125z" aria-label="!" style="font-size:384px;font-family:&quot;Arial Black&quot;;-inkscape-font-specification:&quot;Arial Black, &quot;;fill:#fff;stroke:#000;stroke-width:0;stroke-linejoin:bevel;paint-order:stroke markers fill"/></svg>